<svg width="44" height="44" viewBox="0 0 44 44" fill="none" xmlns="http://www.w3.org/2000/svg">
<rect width="44" height="44" rx="12" fill="#1E1E1E"/>
<path d="M22 22.2444C22 21.0126 22.4893 19.8313 23.3603 18.9603C24.2313 18.0893 25.4127 17.6 26.6444 17.6C27.8762 17.6 29.0576 18.0893 29.9286 18.9603C30.7996 19.8313 31.2889 21.0126 31.2889 22.2444C31.2889 23.4762 30.7996 24.6575 29.9286 25.5285C29.0576 26.3995 27.8762 26.8889 26.6444 26.8889C25.4127 26.8889 24.2313 26.3995 23.3603 25.5285C22.4893 24.6575 22 23.4762 22 22.2444Z" fill="#1ABCFE"/>
<path d="M12.7111 31.5333C12.7111 30.3015 13.2004 29.1202 14.0714 28.2492C14.9424 27.3782 16.1238 26.8889 17.3556 26.8889H22V31.5333C22 32.7651 21.5107 33.9464 20.6397 34.8174C19.7687 35.6885 18.5873 36.1778 17.3556 36.1778C16.1238 36.1778 14.9424 35.6885 14.0714 34.8174C13.2004 33.9464 12.7111 32.7651 12.7111 31.5333V31.5333Z" fill="#0ACF83"/>
<path d="M22 8.3111V17.6H26.6444C27.8762 17.6 29.0576 17.1107 29.9286 16.2397C30.7996 15.3687 31.2889 14.1873 31.2889 12.9555C31.2889 11.7238 30.7996 10.5424 29.9286 9.67142C29.0576 8.80042 27.8762 8.3111 26.6444 8.3111H22Z" fill="#FF7262"/>
<path d="M12.7111 12.9555C12.7111 14.1873 13.2004 15.3687 14.0714 16.2397C14.9424 17.1107 16.1238 17.6 17.3556 17.6H22V8.3111H17.3556C16.1238 8.3111 14.9424 8.80042 14.0714 9.67142C13.2004 10.5424 12.7111 11.7238 12.7111 12.9555V12.9555Z" fill="#F24E1E"/>
<path d="M12.7111 22.2444C12.7111 23.4762 13.2004 24.6575 14.0714 25.5285C14.9424 26.3995 16.1238 26.8889 17.3556 26.8889H22V17.6H17.3556C16.1238 17.6 14.9424 18.0893 14.0714 18.9603C13.2004 19.8313 12.7111 21.0126 12.7111 22.2444V22.2444Z" fill="#A259FF"/>
</svg>
