<svg width="44" height="47" viewBox="0 0 44 47" fill="none" xmlns="http://www.w3.org/2000/svg">
<path d="M43.4732 22.227L23.8975 2.65133L22 0.753815L7.26422 15.4896L0.526837 22.227C0.189486 22.5647 0 23.0226 0 23.5C0 23.9774 0.189486 24.4352 0.526837 24.773L13.9896 38.2358L22 46.2462L36.7358 31.5104L36.964 31.2822L43.4732 24.773C43.8105 24.4352 44 23.9774 44 23.5C44 23.0226 43.8105 22.5647 43.4732 22.227ZM22 30.2254L15.2746 23.5L22 16.7746L28.7254 23.5L22 30.2254Z" fill="#2684FF"/>
<path d="M22 16.7746C19.8848 14.6592 18.6925 11.7927 18.6835 8.80115C18.6745 5.80961 19.8495 2.93602 21.952 0.807861L7.2342 15.5196L15.2446 23.53L22 16.7746Z" fill="url(#paint0_linear_6_142)"/>
<path d="M28.7434 23.482L22 30.2254C23.0523 31.2771 23.8871 32.5259 24.4567 33.9003C25.0263 35.2748 25.3194 36.748 25.3194 38.2358C25.3194 39.7236 25.0263 41.1968 24.4567 42.5713C23.8871 43.9457 23.0523 45.1945 22 46.2462L36.7538 31.4924L28.7434 23.482Z" fill="url(#paint1_linear_6_142)"/>
<defs>
<linearGradient id="paint0_linear_6_142" x1="20.799" y1="9.97118" x2="11.4075" y2="19.3627" gradientUnits="userSpaceOnUse">
<stop offset="0.18" stop-color="#0052CC"/>
<stop offset="1" stop-color="#2684FF"/>
</linearGradient>
<linearGradient id="paint1_linear_6_142" x1="594.152" y1="1395.71" x2="918.516" y2="1185.48" gradientUnits="userSpaceOnUse">
<stop offset="0.18" stop-color="#0052CC"/>
<stop offset="1" stop-color="#2684FF"/>
</linearGradient>
</defs>
</svg>
