<svg width="47" height="44" viewBox="0 0 47 44" fill="none" xmlns="http://www.w3.org/2000/svg">
<g clip-path="url(#clip0_6_135)">
<path fill-rule="evenodd" clip-rule="evenodd" d="M23.5037 36.8237L23.6208 44.0007C22.5497 44.0013 21.5204 43.5845 20.7514 42.8389L20.191 42.1717L6.57598 25.9814L1.94496 20.4695C1.93279 20.463 1.92305 20.4528 1.91716 20.4403L1.844 20.3554L1.82937 20.3364C1.7388 20.2169 1.66633 20.0848 1.61428 19.9442C1.54502 19.7719 1.50687 19.5886 1.50161 19.4029V19.2917C1.50161 19.2565 1.50454 19.22 1.51185 19.1848C1.54387 18.8244 1.69645 18.4852 1.94496 18.2221C2.24199 17.9002 2.67363 17.6953 3.14771 17.6953H7.7202L23.5023 36.8266L23.5052 36.8237H23.5037Z" fill="#FCD1CA"/>
<path fill-rule="evenodd" clip-rule="evenodd" d="M23.5007 28.2171V37.1119L1.91262 11.3508C1.78297 11.2056 1.68083 11.038 1.6112 10.8563C1.54284 10.6821 1.50522 10.4975 1.5 10.3105V10.2008C1.51171 9.78813 1.67705 9.41794 1.94335 9.13555C2.23892 8.80925 2.67056 8.6088 3.1461 8.6088H7.24013L23.5007 28.2157V28.2171Z" fill="#FF9D8D"/>
<path fill-rule="evenodd" clip-rule="evenodd" d="M3.13747 0.000793656C2.66632 0.000793656 2.23321 0.199789 1.94057 0.524619C1.67719 0.801164 1.51332 1.17574 1.50161 1.58397V1.69225C1.506 1.88686 1.54404 2.06829 1.61281 2.23363C1.61428 2.24973 1.62159 2.2629 1.62744 2.27753C1.6989 2.44961 1.80103 2.60727 1.92886 2.74283L1.95227 2.76917L23.5008 28.2171V44.0006C24.5658 44.0029 25.5896 43.5892 26.354 42.8476C26.3584 42.8476 26.3584 42.8476 26.3584 42.8447L45.0874 20.6099C45.1108 20.5865 45.1313 20.5602 45.1517 20.5339C45.2512 20.4109 45.3303 20.2719 45.3888 20.1198C45.4619 19.9383 45.5 19.7393 45.5 19.5272V1.63519C45.5018 1.22048 45.3435 0.821075 45.0581 0.520229C44.9056 0.354729 44.7203 0.222904 44.5139 0.133203C44.3076 0.0435022 44.0848 -0.00209601 43.8597 -0.000669436H3.13893L3.13747 0.000793656Z" fill="#FF6661"/>
</g>
<defs>
<clipPath id="clip0_6_135">
<rect width="44" height="44.0014" fill="white" transform="translate(1.5 -0.000701904)"/>
</clipPath>
</defs>
</svg>
