<svg width="364" height="364" viewBox="0 0 364 364" fill="none" xmlns="http://www.w3.org/2000/svg">
<rect width="364" height="364" rx="15" fill="white"/>
<path d="M323 182C323 264.843 255.843 332 173 332C90.1573 332 23 264.843 23 182C23 99.1573 90.1573 32 173 32C255.843 32 323 99.1573 323 182ZM41.1578 182C41.1578 254.814 100.186 313.842 173 313.842C245.814 313.842 304.842 254.814 304.842 182C304.842 109.186 245.814 50.1578 173 50.1578C100.186 50.1578 41.1578 109.186 41.1578 182Z" fill="#00C400"/>
<path d="M162.99 274H183.69V109.78H91.92V127.95H162.99V186.14H96.29V204.31H162.99V274Z" fill="#008900"/>
<path d="M212.78 109.78C234.247 109.78 249.887 113.997 259.7 122.43C269.513 130.863 274.42 142.747 274.42 158.08C274.42 164.827 273.27 171.343 270.97 177.63C268.823 183.763 265.22 189.283 260.16 194.19C255.1 199.097 248.353 203.007 239.92 205.92C231.487 208.68 221.137 210.06 208.87 210.06H190.01V274H169.31V109.78H212.78ZM210.94 127.49H190.01V192.35H206.57C216.997 192.35 225.66 191.277 232.56 189.13C239.46 186.83 244.597 183.227 247.97 178.32C251.343 173.413 253.03 166.973 253.03 159C253.03 148.42 249.657 140.523 242.91 135.31C236.163 130.097 225.507 127.49 210.94 127.49Z" fill="#008900"/>
</svg>
